<?xml version="1.0" encoding="UTF-8" standalone="no"?>
<svg
   xmlns:dc="http://purl.org/dc/elements/1.1/"
   xmlns:cc="http://creativecommons.org/ns#"
   xmlns:rdf="http://www.w3.org/1999/02/22-rdf-syntax-ns#"
   xmlns:svg="http://www.w3.org/2000/svg"
   xmlns="http://www.w3.org/2000/svg"
   xmlns:sodipodi="http://sodipodi.sourceforge.net/DTD/sodipodi-0.dtd"
   xmlns:inkscape="http://www.inkscape.org/namespaces/inkscape"
   version="1.1"
   id="svg2"
   xml:space="preserve"
   width="2666.6667"
   height="1012.72"
   viewBox="0 0 2666.6667 1012.72"
   sodipodi:docname="JUICT_LOGO.eps"><metadata
     id="metadata8"><rdf:RDF><cc:Work
         rdf:about=""><dc:format>image/svg+xml</dc:format><dc:type
           rdf:resource="http://purl.org/dc/dcmitype/StillImage" /></cc:Work></rdf:RDF></metadata><defs
     id="defs6" /><sodipodi:namedview
     pagecolor="#ffffff"
     bordercolor="#666666"
     borderopacity="1"
     objecttolerance="10"
     gridtolerance="10"
     guidetolerance="10"
     inkscape:pageopacity="0"
     inkscape:pageshadow="2"
     inkscape:window-width="640"
     inkscape:window-height="480"
     id="namedview4" /><g
     id="g10"
     inkscape:groupmode="layer"
     inkscape:label="ink_ext_XXXXXX"
     transform="matrix(1.3333333,0,0,-1.3333333,0,1012.72)"><g
       id="g12"
       transform="scale(0.1)"><path
         d="m 10792.8,1795.4 -964.66,-101.32 c -97.22,-10.25 -187.11,20.64 -246.7,84.76 -60.03,64.13 -85.5,156.37 -69.98,253.88 l 191.35,1192.92 241.92,1418.77 c 52.12,307.75 312.57,554.15 619.17,586.51 l 213.6,22.4 c 69.7,7.17 126.5,-43.04 126.5,-112.73 0,-69.84 -56.8,-132.21 -126.5,-139.53 l -213.6,-22.4 c -183.6,-19.32 -339.4,-167.05 -370.7,-350.65 L 9951.12,3210.12 9760.49,2018.66 c -3.66,-23.71 0.74,-43.04 12.74,-56.21 12.15,-13.04 31.04,-18.6 54.91,-16.12 l 964.66,101.32 c 99.6,10.69 124.8,34.7 141.3,137.47 l 333.5,2083.53 170,950.56 c 12.5,69.54 79,121.96 146.9,116.83 68.2,-5.27 113.6,-66.18 101.3,-135.86 l -169.7,-948.51 -333.3,-2080.75 c -35.8,-225.61 -167,-352.11 -390,-375.52"
         style="fill:#ffffff;fill-opacity:1;fill-rule:nonzero;stroke:none"
         id="path14" /><path
         d="M 11184.3,5524.19 8573.75,5249.53 c -69.7,-7.62 -126.06,43.04 -126.06,112.58 0,69.7 56.36,132.36 126.06,139.68 l 2610.55,274.66 c 185.1,19.61 341.2,152.15 371.2,338.24 l 40.5,255.04 c 4.1,24.45 -0.5,44.36 -13,57.83 -12.7,13.76 -32.4,19.33 -56.5,16.83 l -962.3,-101.31 c -99.6,-10.25 -124.8,-34.7 -141.3,-137.03 l -23.7,-175.15 c -11.4,-69.99 -75.8,-124.3 -144.8,-119.18 -68.5,3.81 -115.3,63.69 -104.1,133.67 l 23.8,174.71 c 36.2,225.76 167.5,352.11 390.1,375.54 l 962.3,101.02 c 97.8,10.39 188.4,-20.65 248.7,-85.51 59.9,-64.42 85.5,-157.68 70,-255.62 l -41,-255.34 c -49.6,-310.67 -310.5,-543.65 -619.9,-576"
         style="fill:#20426a;fill-opacity:1;fill-rule:nonzero;stroke:none"
         id="path16" /><path
         d="M 1785.45,823.578 C 399.848,680.539 -141.129,1055.05 30.9023,2038.18 L 211.273,3066.55 c 40.411,232.2 186.965,367.63 422.829,392.07 l 937.888,96.92 c 236.15,24.46 339.66,-85.5 298.96,-317.7 l -135.72,-774.5 c -16.69,-96.19 -30.01,-172.32 300.43,-138.21 298.23,30.61 310.09,99.27 328.39,203.22 l 506.13,2888.76 c 39.83,228.4 190.18,367.63 423.26,391.65 l 1015.34,104.82 c 232.79,24.16 338.93,-88.57 298.96,-317.41 L 4402.92,4427.84 c -11.86,-69.54 -79.65,-131.91 -150.21,-139.23 -71.16,-7.47 -118.74,43.19 -106.44,112.73 l 204.53,1168.33 c 15.67,88.87 4.24,101.02 -86.23,91.65 L 3249.23,5556.64 c -90.77,-9.37 -106.73,-24.16 -122.4,-113.03 L 2621,2554.56 c -51.54,-293.55 -245.68,-442.01 -629.56,-481.68 -406.28,-42.03 -564.4,70.27 -513.3,363.81 l 135.72,774.65 c 16.25,91.95 7.32,101.31 -86.24,91.65 L 590.324,3206.51 C 496.77,3196.85 484.035,3185.13 467.93,3093.04 L 287.992,2064.67 C 165.012,1362.8 380.23,926.219 1829.66,1075.84 c 1551.92,160.17 1864.35,744.19 1970.65,1351.2 l 190.62,1087.8 c 12.3,69.99 79.64,132.35 150.65,139.53 70.72,7.17 118.3,-43.05 106.44,-113.03 L 4057.25,2453.68 C 3885.22,1470.7 3184.66,967.941 1785.45,823.578"
         style="fill:#20426a;fill-opacity:1;fill-rule:nonzero;stroke:none"
         id="path18" /><path
         d="m 12743.7,6333.68 c -305.1,-347.71 -390,-738.18 -417.6,-938.18 l -350.5,-2011.49 c -79.5,-456.49 -19.1,-786.2 184.1,-1007.42 235,-255.34 651.2,-348.02 1272.1,-282.86 l 1549,162.94 c 218.9,23.14 354.9,152.27 393.1,373.78 l 134.1,769.82 c 21.4,121.95 4.4,210.82 -52.1,272.17 -55.8,60.61 -140.9,84.03 -259.7,71.59 l -1276.3,-133.97 c -146.1,-15.51 -188.4,11.72 -199.8,24.46 -20.7,22.4 -14.8,78.62 -9.2,109.95 l 136.7,784.89 c 12,69.83 -33.8,130.45 -102,135.72 -69.6,4.83 -134.3,-47.88 -146.4,-117.57 l -136.5,-784.89 c -23.4,-134.26 -2.1,-238.64 64.1,-310.67 76.6,-83.02 205,-114.05 393.1,-94.43 l 1276.3,134.4 c 48.9,4.82 62,-1.47 65.8,-1.03 1.1,-2.78 6.9,-21.08 -2.2,-72.76 l -134.2,-769.67 c -17.3,-100.58 -47.3,-129.28 -144.8,-139.52 l -1549,-162.67 c -542,-57.24 -894.8,12.46 -1078.9,212.89 -152.5,165.73 -194.5,429.7 -128.8,806.99 l 350.1,2011.35 c 57.5,330.44 174.8,591.77 354.6,803.92 428.9,506.28 1314,577.72 1314,577.72 l 1009.1,96.34 c 15.7,1.76 27.9,2.34 37.2,2.34 17.7,0.15 32.1,-14.35 31.7,-32.06 -0.5,-10.69 -1.8,-25.04 -5,-43.63 l -136.2,-782.4 c -17.5,-101.02 -47.1,-130.01 -144.6,-140.26 l -737,-76.72 c -240.9,-25.18 -409.4,-121.22 -500.8,-285.93 -35.4,-63.4 -15.3,-138.94 44.5,-167.79 60.1,-28.99 137.2,-1.46 172.7,62.38 27.9,49.92 87.5,118.44 283.8,139.08 l 736.8,76.72 c 218.4,23.13 354.4,152.7 393.1,374.22 l 136.1,782.4 c 21.4,121.96 4.4,211.26 -52.1,272.32 -55.8,60.61 -140.8,84.32 -260.2,71.59 l -1009.1,-105.27 c 0,0 -1041.1,-63.25 -1499.1,-668.79"
         style="fill:#20426a;fill-opacity:1;fill-rule:nonzero;stroke:none"
         id="path20" /><path
         d="m 17709.9,2562.89 -1028.6,-108.2 c -96.7,-9.96 -186.3,21.09 -245.2,85.06 -59.6,65.16 -84,159.3 -66.9,258.85 l 462.8,2658.18 c 28.3,159.87 144.7,313.16 297.9,390.61 l -900.4,-95.16 c -96.9,-10.4 -186.1,20.64 -245.3,85.06 -59.6,65.15 -84.1,159.43 -66.8,258.7 l 136.3,782.84 c 33.1,189.89 205.7,354.16 393.2,373.78 l 3235.5,340.98 c 97.1,9.96 186.4,-21.08 245.2,-85.06 60.1,-65.15 84.2,-159.14 66.9,-258.85 l -136.4,-782.69 c -32.8,-189.89 -205.7,-354.31 -392.8,-373.93 l -828,-87.11 -11.7,-68.52 c -12.4,-69.69 -76.8,-122.69 -146.4,-117.57 -68.5,5.13 -114,65.89 -102,135.73 l 30.4,174.37 c 10.6,61.34 63,110.97 124.3,117.12 l 933.4,98.24 c 65.1,6.88 133.1,72.03 144.3,139.53 l 136.9,782.84 c 4.1,24.74 0,45.39 -12.1,58.56 -11.3,12.01 -29.3,17.28 -52,15.08 L 16446.9,7000.5 c -65.5,-6.89 -133,-72.04 -144.8,-139.53 l -136.4,-782.84 c -4.4,-24.89 0,-45.53 11.7,-58.56 11.4,-12.45 29.3,-17.57 52.1,-15.23 l 1559.6,164.85 c 60.3,6.3 112.3,-31.33 123.7,-89.6 11.4,-58.12 -21,-120.93 -77.2,-148.74 l -610.8,-307.02 c -73.5,-36.9 -131.3,-111.27 -144.5,-185.06 l -462.6,-2658.18 c -4.6,-24.74 -0.3,-45.38 11.7,-58.55 11.4,-12.02 29.3,-17.14 51.9,-14.8 l 1028.6,107.91 c 65.4,6.88 132.9,71.89 145.1,139.52 l 364.8,2095.53 c 12,69.84 76.4,122.98 146.1,117.42 68.5,-4.83 114.4,-65.44 101.9,-135.43 L 18103,2936.67 c -33.1,-189.75 -205.7,-354.16 -393.1,-373.78"
         style="fill:#20426a;fill-opacity:1;fill-rule:nonzero;stroke:none"
         id="path22" /><path
         d="m 9235.48,6453.81 -982.84,-106.58 c -236.15,-24.46 -382.56,-169.25 -423.26,-401.6 L 7472,3897.54 c -0.59,-2.2 -2.05,-4.1 -2.49,-6.45 l -147.28,-840.23 c -13.33,-76.86 -30.02,-172.32 -438.2,-214.34 -401.74,-41.72 -385.05,53.74 -371.73,130.59 l 507.15,2895.21 c 39.97,228.4 -66.17,341.43 -298.96,317.27 L 5705.16,6074.91 c -232.79,-24.16 -383.15,-163.39 -423.27,-392.08 L 4731.4,2540.19 c -172.18,-982.98 407.01,-1353.39 1877.53,-1201.71 1470.51,151.83 2202.99,657.67 2375.46,1640.65 l 345.37,1963.32 h -0.15 l 4.4,26.35 c 12.15,69.55 -35.43,120.2 -106.44,112.59 -70.71,-7.18 -138.36,-69.54 -150.36,-139.24 L 8727.3,2952.62 C 8621.01,2345.47 8296.13,1760.13 6653.15,1590.6 5010.02,1421.06 4882.2,1959.69 4988.35,2566.69 l 550.49,3142.64 c 15.66,88.87 31.62,103.65 122.1,113.02 l 1015.34,104.69 c 90.47,9.66 101.89,-2.35 86.08,-91.21 L 6255.21,2940.62 c -65.88,-376.27 278.03,-387.98 584.6,-356.65 309.36,32.06 673.62,117.13 739.36,493.39 l 137.04,780.65 c 0.29,1.76 1.46,3.22 1.75,4.97 l 368.51,2109.3 c 16.25,92.96 27.38,112.73 121.96,122.39 l 982.83,106.88 c 90.77,9.37 102.19,-2.63 86.53,-91.65 l -26.65,-155.63 -4.24,-26.5 c -12.3,-69.54 35.43,-120.2 106.44,-112.59 70.56,7.17 138.35,69.55 150.21,139.09 l 31.18,182.27 c 39.97,228.69 -66.47,341.43 -299.25,317.27"
         style="fill:#20426a;fill-opacity:1;fill-rule:nonzero;stroke:none"
         id="path24" /><path
         d="m 11483.1,828.031 h 275 l 320,-608.609 320.2,608.609 h 275 L 12233.2,9.03125 h -310 L 11483.1,828.031"
         style="fill:#df2f49;fill-opacity:1;fill-rule:nonzero;stroke:none"
         id="path26" /><path
         d="m 13019.4,540.68 c 0,239.812 134.7,296.332 360.9,296.332 h 402.8 c 226.2,0 360.9,-56.52 360.9,-296.332 V 296.32 C 14144,56.5117 14009.3,0 13783.1,0 h -402.8 c -226.2,0 -360.9,56.5117 -360.9,296.32 z m 258,-166.321 c 0,-118.738 24.9,-163.968 143.6,-163.968 h 321.4 c 118.7,0 143.6,45.23 143.6,163.968 v 88.282 c 0,101.757 -24.9,163.98 -157.2,163.98 h -294.2 c -132.3,0 -157.2,-62.223 -157.2,-163.98 v -88.282"
         style="fill:#df2f49;fill-opacity:1;fill-rule:nonzero;stroke:none"
         id="path28" /><path
         d="m 14551.2,540.68 c 0,239.812 134.7,296.332 360.9,296.332 h 402.8 c 226.2,0 360.9,-56.52 360.9,-296.332 V 296.32 C 15675.8,56.5117 15541.1,0 15314.9,0 h -402.8 c -226.2,0 -360.9,56.5117 -360.9,296.32 z m 258,-166.321 c 0,-118.738 24.9,-163.968 143.6,-163.968 h 321.4 c 118.7,0 143.6,45.23 143.6,163.968 v 88.282 c 0,101.757 -24.9,163.98 -157.3,163.98 h -294.1 c -132.3,0 -157.2,-62.223 -157.2,-163.98 v -88.282"
         style="fill:#df2f49;fill-opacity:1;fill-rule:nonzero;stroke:none"
         id="path30" /><path
         d="m 16101.1,828.031 h 758 c 193.4,0 245.5,-96.191 245.5,-243.179 V 532.73 c 0,-109.66 -24.9,-174.23 -140.3,-201.308 v -2.34 c 74.7,-13.473 136.9,-46.273 136.9,-180.961 V 9.03125 H 16850 V 107.422 c 0,85.93 -24.9,114.199 -102.9,114.199 h -394.9 V 9.03125 h -251.1 z m 251.1,-402.761 h 415.2 c 67.9,0 92.8,27.23 92.8,85.941 v 27.23 c 0,72.329 -36.1,85.938 -115.3,85.938 h -392.7 V 425.27"
         style="fill:#df2f49;fill-opacity:1;fill-rule:nonzero;stroke:none"
         id="path32" /><path
         d="m 18394.2,827.992 h 251.1 V 8.98828 h -251.1 V 827.992"
         style="fill:#df2f49;fill-opacity:1;fill-rule:nonzero;stroke:none"
         id="path34" /><path
         d="m 19042.5,828.031 h 957 V 624.379 h -353 V 9.03125 h -251 V 624.379 h -353 v 203.652"
         style="fill:#df2f49;fill-opacity:1;fill-rule:nonzero;stroke:none"
         id="path36" /><path
         d="m 10792.8,1795.4 -964.66,-101.32 c -97.22,-10.25 -187.11,20.64 -246.7,84.76 -60.03,64.13 -85.5,156.37 -69.98,253.88 l 191.35,1192.92 241.92,1418.77 c 52.12,307.75 312.57,554.15 619.17,586.51 l 213.6,22.4 c 69.7,7.17 126.5,-43.04 126.5,-112.73 0,-69.84 -56.8,-132.21 -126.5,-139.53 l -213.6,-22.4 c -183.6,-19.32 -339.4,-167.05 -370.7,-350.65 L 9951.12,3210.12 9760.49,2018.66 c -3.66,-23.71 0.74,-43.04 12.74,-56.21 12.15,-13.04 31.04,-18.6 54.91,-16.12 l 964.66,101.32 c 99.6,10.69 124.8,34.7 141.3,137.47 l 333.5,2083.53 170,950.56 c 12.5,69.54 79,121.96 146.9,116.83 68.2,-5.27 113.6,-66.18 101.3,-135.86 l -169.7,-948.51 -333.3,-2080.75 c -35.8,-225.61 -167,-352.11 -390,-375.52"
         style="fill:#20426a;fill-opacity:1;fill-rule:nonzero;stroke:none"
         id="path38" /></g></g></svg>
